<?xml version="1.0" encoding="utf-8"?>
<!-- Generator: Adobe Illustrator 12.0.0, SVG Export Plug-In  -->
<!DOCTYPE svg PUBLIC "-//W3C//DTD SVG 1.1//EN" "http://www.w3.org/Graphics/SVG/1.1/DTD/svg11.dtd" [
	<!ENTITY ns_flows "http://ns.adobe.com/Flows/1.0/">
	<!ENTITY ns_svg "http://www.w3.org/2000/svg">
	<!ENTITY ns_xlink "http://www.w3.org/1999/xlink">
]>
<svg  version="1.1" xmlns="&ns_svg;" xmlns:xlink="&ns_xlink;" xmlns:a="http://ns.adobe.com/AdobeSVGViewerExtensions/3.0/"
	 width="600" height="400" viewBox="-59.5 -52.5 600 400" enable-background="new -59.5 -52.5 600 400" xml:space="preserve">
<defs>
</defs>
<path fill="#32A6B0" d="M314.867,238.712c0,3.063-2.48,5.547-5.545,5.547H171.676c-3.063,0-5.544-2.483-5.544-5.547V56.289
	c0-3.063,2.481-5.547,5.544-5.547h137.646c3.063,0,5.545,2.484,5.545,5.547V238.712L314.867,238.712z"/>
<path fill="#32A6B0" d="M263.689,186.734c0,3.063-2.48,5.547-5.545,5.547h-35.292c-3.063,0-5.544-2.483-5.544-5.547v-78.47
	c0-3.063,2.48-5.546,5.544-5.546h35.292c3.063,0,5.545,2.483,5.545,5.546V186.734z"/>
<rect x="181.326" y="69.134" fill="#FFFFFF" width="118.348" height="156.732"/>
<rect x="181.325" y="69.933" fill="none" stroke="#32A6B0" stroke-miterlimit="10" width="118.35" height="155.133"/>
<rect x="222.108" y="115.514" fill="#FFFFFF" width="36.785" height="63.972"/>
<rect x="221.308" y="115.514" fill="none" stroke="#32A6B0" stroke-miterlimit="10" width="38.383" height="63.972"/>
<path fill="#FFFFFF" d="M244.381,147.5c0,2.143-1.736,3.881-3.879,3.881c-2.145,0-3.883-1.738-3.883-3.881
	c0-2.143,1.738-3.881,3.883-3.881C242.645,143.619,244.381,145.357,244.381,147.5"/>
<rect x="226.106" y="145.101" fill="#32A6B0" width="28.789" height="4.799"/>
<rect x="226.906" y="144.301" fill="#32A6B0" width="27.188" height="6.398"/>
<rect x="234.103" y="141.903" fill="#32A6B0" width="12.795" height="11.195"/>
<rect x="225.306" y="144.301" fill="#32A6B0" width="30.387" height="6.398"/>
<path fill="#FFFFFF" d="M246.045,147.5c0,3.063-2.482,5.544-5.544,5.544c-3.063,0-5.546-2.479-5.546-5.544
	c0-3.064,2.48-5.545,5.546-5.545C243.563,141.956,246.045,144.437,246.045,147.5"/>
<rect x="218.11" y="141.902" fill="#32A6B0" width="44.781" height="11.196"/>
<rect x="193.32" y="141.103" fill="#32A6B0" width="94.36" height="12.795"/>
<rect x="193.32" y="141.902" fill="#32A6B0" width="94.36" height="11.196"/>
<rect x="228.505" y="141.902" fill="#32A6B0" width="23.99" height="11.196"/>
<rect x="193.32" y="141.902" fill="#32A6B0" width="94.36" height="11.196"/>
<rect x="193.32" y="141.103" fill="#32A6B0" width="94.36" height="12.795"/>
<rect x="226.906" y="136.305" fill="#32A6B0" width="27.188" height="22.39"/>
<rect x="226.906" y="136.305" fill="#32A6B0" width="27.188" height="22.39"/>
<rect x="227.705" y="136.305" fill="#32A6B0" width="25.59" height="22.39"/>
<path fill="#FFFFFF" d="M250.204,147.499c0,5.358-4.345,9.707-9.703,9.707c-5.359,0-9.705-4.349-9.705-9.707
	c0-5.356,4.346-9.703,9.705-9.703C245.859,137.796,250.204,142.142,250.204,147.499"/>
<rect x="203.716" y="136.305" fill="#32A6B0" width="73.568" height="22.39"/>
<rect x="134.945" y="137.104" fill="#32A6B0" width="211.109" height="20.791"/>
<rect x="134.945" y="136.305" fill="#32A6B0" width="211.109" height="22.39"/>
<rect x="229.305" y="136.305" fill="#32A6B0" width="22.39" height="22.39"/>
<rect x="209.313" y="137.104" fill="#32A6B0" width="62.373" height="20.791"/>
<rect x="209.313" y="137.104" fill="#32A6B0" width="62.375" height="20.791"/>
<rect x="210.113" y="137.104" fill="#32A6B0" width="60.774" height="20.791"/>
<polygon fill="#32A6B0" points="196.788,167.352 202.886,128.297 279.777,127.648 284.213,167.352 "/>
<polygon fill="none" stroke="#32A6B0" stroke-miterlimit="10" points="196.788,167.252 202.886,128.596 279.777,127.749 
	284.213,167.252 "/>
<polygon fill="#32A6B0" points="179.726,150.287 206.276,139.475 278.588,142.526 301.273,150.287 301.273,155.525 179.726,155.525 
	"/>
<polygon fill="none" stroke="#32A6B0" stroke-miterlimit="10" points="179.726,150.688 205.876,139.875 278.389,142.926 
	301.273,150.688 301.273,155.125 179.726,155.125 "/>
<path fill="#5E889E" d="M368,245.296c0,3.149-2.554,5.704-5.704,5.704H5.704C2.554,251,0,248.445,0,245.296V5.704
	C0,2.554,2.554,0,5.704,0h356.592C365.446,0,368,2.554,368,5.704V245.296z"/>
<rect x="19" y="19" fill="#FFFFFF" width="328" height="187"/>
<rect x="18.5" y="19.5" fill="none" stroke="#5E889E" stroke-miterlimit="10" width="328" height="186"/>
<path fill="#5E889E" d="M422,289.297c0,3.148-2.554,5.703-5.704,5.703H274.704c-3.149,0-5.704-2.555-5.704-5.703V100.703
	c0-3.15,2.555-5.703,5.704-5.703h141.592c3.15,0,5.704,2.553,5.704,5.703V289.297L422,289.297z"/>
<path fill="#5E889E" d="M480,286.296c0,3.149-2.554,5.704-5.703,5.704h-36.594c-3.149,0-5.703-2.555-5.703-5.704v-80.592
	c0-3.15,2.554-5.704,5.703-5.704h36.594c3.149,0,5.703,2.554,5.703,5.704V286.296z"/>
<rect x="285" y="110" fill="#FFFFFF" width="122" height="161"/>
<rect x="437" y="215" fill="#FFFFFF" width="38" height="65"/>
<rect x="436.5" y="212.5" fill="none" stroke="#5E889E" stroke-miterlimit="10" width="39" height="67"/>
<path fill="#FFFFFF" d="M460.925,285.157c0,2.204-1.788,3.993-3.991,3.993c-2.207,0-3.993-1.789-3.993-3.993
	c0-2.206,1.786-3.991,3.993-3.991C459.137,281.166,460.925,282.951,460.925,285.157"/>
<rect x="441" y="221" fill="#5E889E" width="29" height="5"/>
<rect x="441" y="236" fill="#5E889E" width="28" height="6"/>
<rect x="441" y="249" fill="#5E889E" width="13" height="11"/>
<rect x="441" y="266" fill="#5E889E" width="30" height="8"/>
<path fill="#FFFFFF" d="M351.836,281.239c0,3.149-2.554,5.704-5.703,5.704c-3.151,0-5.705-2.555-5.705-5.704
	c0-3.15,2.554-5.703,5.705-5.703C349.282,275.536,351.836,278.089,351.836,281.239"/>
<rect x="295" y="124" fill="#5E889E" width="47" height="12"/>
<rect x="295" y="153" fill="#5E889E" width="98" height="14"/>
<rect x="295" y="173" fill="#5E889E" width="98" height="12"/>
<rect x="368" y="124" fill="#5E889E" width="25" height="12"/>
<rect x="295" y="245" fill="#5E889E" width="98" height="12"/>
<rect x="295" y="225" fill="#5E889E" width="98" height="12"/>
<rect x="295" y="191" fill="#5E889E" width="29" height="24"/>
<rect x="330" y="191" fill="#5E889E" width="28" height="24"/>
<rect x="367" y="191" fill="#5E889E" width="26" height="24"/>
<path fill="#FFFFFF" d="M195.542,228.191c0,5.512-4.469,9.981-9.979,9.981c-5.515,0-9.984-4.471-9.984-9.981
	c0-5.514,4.47-9.981,9.984-9.981C191.073,218.21,195.542,222.68,195.542,228.191"/>
<rect x="39" y="36" fill="#5E889E" width="75" height="23"/>
<rect x="39" y="95" fill="#5E889E" width="217" height="22"/>
<rect x="39" y="131" fill="#5E889E" width="217" height="22"/>
<rect x="303" y="36" fill="#5E889E" width="22" height="23"/>
<rect x="39" y="167" fill="#5E889E" width="64" height="21"/>
<rect x="117" y="167" fill="#5E889E" width="64" height="21"/>
<rect x="194" y="168" fill="#5E889E" width="62" height="22"/>
<polygon fill="#5E889E" points="139.643,285 145.916,244.158 225.014,243.824 229.577,285 "/>
<polygon fill="none" stroke="#5E889E" stroke-miterlimit="10" points="139.643,284.5 145.916,243.908 225.014,243.45 229.577,284.5 
	"/>
<polygon fill="#5E889E" points="122,289.795 149.645,278.672 223.347,281.813 246,289.795 246,296 122,296 "/>
</svg>
